<svg width="470" height="213" viewBox="0 0 470 213" fill="none" xmlns="http://www.w3.org/2000/svg">
<g filter="url(#filter0_d_72_2)">
<path d="M20.1 111C14.9 111 11.05 109.45 8.55 106.35C6.05 103.25 4.8 99.1 4.8 93.9V24C4.8 16.4 6.85 10.8 10.95 7.2C15.15 3.59999 20.15 1.79999 25.95 1.79999C31.45 1.79999 36.1 3.59999 39.9 7.2C43.8 10.8 46.65 16.5 48.45 24.3L60.15 75.15H64.05L75.75 24.3C77.55 16.5 80.4 10.8 84.3 7.2C88.3 3.59999 93.05 1.79999 98.55 1.79999C104.35 1.79999 109.3 3.59999 113.4 7.2C117.6 10.8 119.7 16.4 119.7 24V93.9C119.7 99.1 118.4 103.25 115.8 106.35C113.3 109.45 109.45 111 104.25 111C99.25 111 95.4 109.45 92.7 106.35C90 103.25 88.65 99.1 88.65 93.9V53.55C88.65 52.55 88.5 51.65 88.2 50.85C88 49.95 87.35 49.5 86.25 49.5C85.35 49.5 84.7 49.95 84.3 50.85C83.9 51.65 83.6 52.55 83.4 53.55L77.7 91.35C77 95.45 76.15 99 75.15 102C74.25 104.9 72.8 107.15 70.8 108.75C68.8 110.25 65.9 111 62.1 111C58.4 111 55.5 110.25 53.4 108.75C51.4 107.15 49.9 104.9 48.9 102C48 99 47.25 95.45 46.65 91.35L40.8 53.55C40.7 52.55 40.45 51.65 40.05 50.85C39.65 49.95 38.95 49.5 37.95 49.5C36.95 49.5 36.3 49.95 36 50.85C35.7 51.65 35.55 52.55 35.55 53.55V93.9C35.55 99.1 34.2 103.25 31.5 106.35C28.9 109.45 25.1 111 20.1 111ZM174.912 111.45C168.912 111.35 163.162 110.55 157.662 109.05C152.262 107.55 147.412 105.1 143.112 101.7C138.812 98.3 135.412 93.75 132.912 88.05C130.512 82.35 129.312 75.3 129.312 66.9V16.05C129.312 11.25 130.862 7.69999 133.962 5.39999C137.162 2.99999 140.862 1.79999 145.062 1.79999C149.162 1.79999 152.812 2.99999 156.012 5.39999C159.212 7.69999 160.812 11.25 160.812 16.05V59.85C160.812 66.95 162.462 72.15 165.762 75.45C169.162 78.75 173.512 80.25 178.812 79.95C184.412 79.55 188.412 77.4 190.812 73.5C193.312 69.6 194.012 64.4 192.912 57.9C192.212 53.5 191.412 49.8 190.512 46.8C189.712 43.8 188.862 41.15 187.962 38.85C187.162 36.45 186.462 34.1 185.862 31.8C185.262 29.4 184.812 26.6 184.512 23.4C183.912 16.7 185.262 11.45 188.562 7.65C191.962 3.74999 196.412 1.79999 201.912 1.79999C207.412 1.79999 211.712 3.64999 214.812 7.34999C217.912 11.05 219.462 16.65 219.462 24.15V66.9C219.462 75.3 218.262 82.4 215.862 88.2C213.562 93.9 210.312 98.5 206.112 102C202.012 105.4 197.262 107.85 191.862 109.35C186.562 110.75 180.912 111.45 174.912 111.45ZM275.121 111.45C269.521 111.45 263.871 110.9 258.171 109.8C252.571 108.6 247.371 106.9 242.571 104.7C237.871 102.4 234.071 99.65 231.171 96.45C228.271 93.15 226.821 89.35 226.821 85.05C226.821 79.55 228.571 75.15 232.071 71.85C235.571 68.55 239.671 67 244.371 67.2C248.071 67.3 251.771 68.1 255.471 69.6C259.171 71 262.921 72.4 266.721 73.8C270.621 75.2 274.521 75.9 278.421 75.9C282.321 75.9 285.021 75.4 286.521 74.4C288.021 73.4 288.771 72.05 288.771 70.35C288.771 68.35 287.721 66.7 285.621 65.4C283.521 64.1 280.871 63.1 277.671 62.4L270.321 60.6C262.721 58.8 255.921 56.8 249.921 54.6C243.921 52.3 239.171 49.3 235.671 45.6C232.271 41.8 230.571 36.75 230.571 30.45C230.571 23.55 232.471 17.95 236.271 13.65C240.071 9.25 245.221 6.05 251.721 4.04999C258.221 2.04999 265.471 1.04999 273.471 1.04999C281.671 1.04999 288.871 1.89999 295.071 3.6C301.271 5.29999 306.071 7.74999 309.471 10.95C312.971 14.15 314.721 18.05 314.721 22.65C314.721 27.55 313.371 31.4 310.671 34.2C308.071 36.9 304.571 38.25 300.171 38.25C297.271 38.25 294.221 37.75 291.021 36.75C287.921 35.75 284.621 34.8 281.121 33.9C277.721 32.9 274.071 32.4 270.171 32.4C266.671 32.4 264.021 32.95 262.221 34.05C260.421 35.05 259.521 36.4 259.521 38.1C259.521 40.2 260.721 41.75 263.121 42.75C265.521 43.75 269.471 44.95 274.971 46.35L283.371 48.3C290.271 50 296.321 52.05 301.521 54.45C306.721 56.85 310.771 60 313.671 63.9C316.571 67.8 318.021 72.9 318.021 79.2C318.021 86.8 316.221 93 312.621 97.8C309.021 102.5 304.021 105.95 297.621 108.15C291.221 110.35 283.721 111.45 275.121 111.45ZM341.054 111.3C336.454 111.3 332.704 109.9 329.804 107.1C326.904 104.3 325.454 100.75 325.454 96.45V17.1C325.454 12.7 326.854 9 329.654 5.99999C332.554 3 336.354 1.5 341.054 1.5C346.054 1.5 349.954 3 352.754 5.99999C355.654 8.9 357.104 12.5 357.104 16.8V96.45C357.104 100.75 355.554 104.3 352.454 107.1C349.454 109.9 345.654 111.3 341.054 111.3ZM418.363 111.3C408.563 111.3 399.713 109.3 391.813 105.3C384.013 101.2 377.863 95.15 373.363 87.15C368.863 79.15 366.613 69.3 366.613 57.6C366.613 45.9 368.863 35.8 373.363 27.3C377.963 18.8 384.213 12.3 392.113 7.8C400.113 3.2 409.213 0.899996 419.413 0.899996C431.213 0.899996 440.263 2.55 446.563 5.84999C452.863 9.14999 456.013 14.05 456.013 20.55C456.013 25.55 454.663 29.7 451.963 33C449.263 36.2 445.563 37.8 440.863 37.8C436.863 37.8 432.963 37.3 429.163 36.3C425.463 35.2 421.113 34.65 416.113 34.65C409.713 34.65 404.663 36.5 400.963 40.2C397.263 43.9 395.413 48.75 395.413 54.75C395.413 60.65 397.263 65.6 400.963 69.6C404.663 73.5 409.713 75.45 416.113 75.45C419.513 75.45 422.613 75.2 425.413 74.7C428.313 74.1 431.113 73.5 433.813 72.9C436.613 72.3 439.613 72 442.813 72C448.113 72 452.013 73.75 454.513 77.25C457.013 80.65 458.263 84.9 458.263 90C458.263 95.1 456.413 99.25 452.713 102.45C449.013 105.55 444.113 107.8 438.013 109.2C432.013 110.6 425.463 111.3 418.363 111.3Z" fill="#D9D9D9"/>
</g>
<g filter="url(#filter1_d_72_2)">
<path d="M31.6162 183.095C30.7503 183.756 29.8844 184.325 29.0186 184.804C28.1755 185.259 27.2868 185.647 26.3525 185.966C25.4183 186.262 24.4157 186.479 23.3447 186.615C22.2738 186.775 21.1003 186.854 19.8242 186.854C17.5228 186.854 15.3695 186.456 13.3643 185.658C11.359 184.838 9.60449 183.664 8.10059 182.138C6.59668 180.611 5.41178 178.765 4.5459 176.601C3.68001 174.436 3.24707 171.986 3.24707 169.252C3.24707 166.677 3.65723 164.25 4.47754 161.972C5.32064 159.693 6.50553 157.699 8.03223 155.99C9.58171 154.281 11.4502 152.937 13.6377 151.957C15.848 150.954 18.3089 150.453 21.0205 150.453C23.2992 150.453 25.2588 150.727 26.8994 151.273C28.5628 151.798 30.0212 152.493 31.2744 153.358L30.0781 159.511C28.5286 158.371 26.9906 157.517 25.4639 156.947C23.9372 156.378 22.2852 156.093 20.5078 156.093C18.9811 156.093 17.557 156.389 16.2354 156.981C14.9365 157.551 13.7972 158.383 12.8174 159.477C11.8604 160.57 11.1084 161.915 10.5615 163.51C10.0146 165.105 9.74121 166.905 9.74121 168.91C9.74121 170.756 9.99186 172.431 10.4932 173.935C10.9945 175.438 11.7122 176.737 12.6465 177.831C13.5807 178.902 14.7087 179.734 16.0303 180.326C17.3519 180.919 18.8444 181.215 20.5078 181.215C22.5814 181.215 24.4613 180.862 26.1475 180.155C27.8337 179.449 29.4287 178.435 30.9326 177.113L31.6162 183.095ZM97.3779 156.537C97.1045 156.469 96.7969 156.4 96.4551 156.332C96.1133 156.264 95.7031 156.195 95.2246 156.127C94.7689 156.059 94.222 156.013 93.584 155.99C92.9688 155.945 92.2396 155.922 91.3965 155.922C89.1634 155.922 87.2949 156.378 85.791 157.289C84.3099 158.178 83.125 159.374 82.2363 160.878C81.3477 162.359 80.7096 164.068 80.3223 166.005C79.9577 167.942 79.7754 169.936 79.7754 171.986C79.7754 173.308 79.9007 174.527 80.1514 175.644C80.4248 176.737 80.7894 177.694 81.2451 178.515C81.7008 179.312 82.2249 179.939 82.8174 180.395C83.4098 180.827 84.0479 181.044 84.7314 181.044C85.734 181.044 86.7367 180.657 87.7393 179.882C88.7646 179.107 89.7445 178.116 90.6787 176.908C91.613 175.678 92.4902 174.311 93.3105 172.807C94.1309 171.28 94.8372 169.776 95.4297 168.295C96.0449 166.791 96.5234 165.378 96.8652 164.057C97.207 162.735 97.3779 161.675 97.3779 160.878V156.537ZM99.9414 186C99.6908 185.453 99.4629 184.701 99.2578 183.744C99.0755 182.787 98.916 181.773 98.7793 180.702C98.6654 179.608 98.5742 178.526 98.5059 177.455C98.4375 176.384 98.4033 175.473 98.4033 174.721V171.986C97.7197 173.764 96.8994 175.541 95.9424 177.318C95.0081 179.073 93.9258 180.657 92.6953 182.069C91.4876 183.482 90.1318 184.633 88.6279 185.521C87.124 186.41 85.4834 186.854 83.7061 186.854C82.2705 186.854 80.9261 186.535 79.6729 185.897C78.4196 185.259 77.3258 184.314 76.3916 183.061C75.4801 181.807 74.7624 180.258 74.2383 178.412C73.7142 176.544 73.4521 174.402 73.4521 171.986C73.4521 169.275 73.8167 166.632 74.5459 164.057C75.2751 161.459 76.3916 159.158 77.8955 157.152C79.3994 155.124 81.3135 153.507 83.6377 152.299C85.9619 151.068 88.7191 150.453 91.9092 150.453C94.1195 150.453 96.2044 150.601 98.1641 150.897C100.124 151.171 101.969 151.535 103.701 151.991V167.885C103.701 172.191 103.906 175.814 104.316 178.754C104.727 181.671 105.262 184.086 105.923 186H99.9414ZM145.195 151.991H152.031V140.883H158.354V151.991H169.463V156.947H158.354V172.67C158.354 174.424 158.434 175.86 158.594 176.977C158.776 178.093 159.038 178.97 159.38 179.608C159.744 180.224 160.2 180.645 160.747 180.873C161.294 181.101 161.955 181.215 162.729 181.215C163.709 181.215 164.814 180.998 166.045 180.565C167.275 180.132 168.643 179.494 170.146 178.651V184.12C168.574 185.146 167.07 185.852 165.635 186.239C164.199 186.649 162.878 186.854 161.67 186.854C160.326 186.854 159.072 186.695 157.91 186.376C156.748 186.08 155.723 185.544 154.834 184.77C153.968 183.995 153.285 182.969 152.783 181.693C152.282 180.395 152.031 178.754 152.031 176.771V156.947H145.195V151.991ZM235.259 156.537C234.985 156.469 234.678 156.4 234.336 156.332C233.994 156.264 233.584 156.195 233.105 156.127C232.65 156.059 232.103 156.013 231.465 155.99C230.85 155.945 230.12 155.922 229.277 155.922C227.044 155.922 225.176 156.378 223.672 157.289C222.191 158.178 221.006 159.374 220.117 160.878C219.229 162.359 218.59 164.068 218.203 166.005C217.839 167.942 217.656 169.936 217.656 171.986C217.656 173.308 217.782 174.527 218.032 175.644C218.306 176.737 218.67 177.694 219.126 178.515C219.582 179.312 220.106 179.939 220.698 180.395C221.291 180.827 221.929 181.044 222.612 181.044C223.615 181.044 224.618 180.657 225.62 179.882C226.646 179.107 227.625 178.116 228.56 176.908C229.494 175.678 230.371 174.311 231.191 172.807C232.012 171.28 232.718 169.776 233.311 168.295C233.926 166.791 234.404 165.378 234.746 164.057C235.088 162.735 235.259 161.675 235.259 160.878V156.537ZM237.822 186C237.572 185.453 237.344 184.701 237.139 183.744C236.956 182.787 236.797 181.773 236.66 180.702C236.546 179.608 236.455 178.526 236.387 177.455C236.318 176.384 236.284 175.473 236.284 174.721V171.986C235.601 173.764 234.78 175.541 233.823 177.318C232.889 179.073 231.807 180.657 230.576 182.069C229.368 183.482 228.013 184.633 226.509 185.521C225.005 186.41 223.364 186.854 221.587 186.854C220.151 186.854 218.807 186.535 217.554 185.897C216.3 185.259 215.207 184.314 214.272 183.061C213.361 181.807 212.643 180.258 212.119 178.412C211.595 176.544 211.333 174.402 211.333 171.986C211.333 169.275 211.698 166.632 212.427 164.057C213.156 161.459 214.272 159.158 215.776 157.152C217.28 155.124 219.194 153.507 221.519 152.299C223.843 151.068 226.6 150.453 229.79 150.453C232 150.453 234.085 150.601 236.045 150.897C238.005 151.171 239.85 151.535 241.582 151.991V167.885C241.582 172.191 241.787 175.814 242.197 178.754C242.607 181.671 243.143 184.086 243.804 186H237.822ZM294.868 169.765C294.868 170.858 294.88 172.146 294.902 173.627C294.948 175.108 294.993 176.612 295.039 178.139C295.107 179.665 295.176 181.124 295.244 182.514C295.335 183.904 295.438 185.066 295.552 186H288.545V147.377C288.545 144.05 288.488 141.042 288.374 138.354C288.26 135.642 288.089 133.295 287.861 131.312H294.868V169.765ZM345.967 168.739C345.967 170.722 346.206 172.499 346.685 174.071C347.163 175.644 347.835 176.977 348.701 178.07C349.59 179.141 350.638 179.962 351.846 180.531C353.053 181.101 354.398 181.386 355.879 181.386C357.246 181.386 358.534 181.101 359.741 180.531C360.949 179.962 361.997 179.141 362.886 178.07C363.797 176.977 364.504 175.644 365.005 174.071C365.529 172.499 365.791 170.722 365.791 168.739C365.791 166.734 365.552 164.945 365.073 163.373C364.595 161.778 363.911 160.434 363.022 159.34C362.157 158.223 361.108 157.38 359.878 156.811C358.67 156.218 357.337 155.922 355.879 155.922C354.489 155.922 353.19 156.218 351.982 156.811C350.775 157.38 349.727 158.223 348.838 159.34C347.949 160.434 347.243 161.778 346.719 163.373C346.217 164.945 345.967 166.734 345.967 168.739ZM339.644 168.739C339.644 165.8 340.088 163.202 340.977 160.946C341.865 158.668 343.062 156.754 344.565 155.204C346.069 153.632 347.824 152.447 349.829 151.649C351.834 150.852 353.965 150.453 356.221 150.453C358.568 150.453 360.71 150.852 362.646 151.649C364.606 152.447 366.281 153.632 367.671 155.204C369.084 156.754 370.177 158.668 370.952 160.946C371.727 163.202 372.114 165.8 372.114 168.739C372.114 171.679 371.67 174.276 370.781 176.532C369.893 178.788 368.696 180.679 367.192 182.206C365.688 183.733 363.934 184.895 361.929 185.692C359.924 186.467 357.793 186.854 355.537 186.854C353.19 186.854 351.037 186.467 349.077 185.692C347.14 184.895 345.465 183.733 344.053 182.206C342.663 180.679 341.58 178.788 340.806 176.532C340.031 174.276 339.644 171.679 339.644 168.739ZM437.876 157.631C437.329 157.426 436.748 157.243 436.133 157.084C435.518 156.902 434.891 156.754 434.253 156.64C433.615 156.526 432.988 156.435 432.373 156.366C431.781 156.298 431.222 156.264 430.698 156.264C428.83 156.264 427.235 156.651 425.913 157.426C424.591 158.178 423.509 159.18 422.666 160.434C421.846 161.664 421.242 163.065 420.854 164.638C420.467 166.21 420.273 167.805 420.273 169.423C420.273 171.542 420.433 173.308 420.752 174.721C421.094 176.111 421.549 177.227 422.119 178.07C422.712 178.891 423.395 179.483 424.17 179.848C424.967 180.189 425.833 180.36 426.768 180.36C427.633 180.36 428.556 180.189 429.536 179.848C430.516 179.483 431.496 178.97 432.476 178.31C433.478 177.649 434.435 176.828 435.347 175.849C436.281 174.869 437.124 173.752 437.876 172.499V157.631ZM444.199 185.146C444.199 188.153 443.755 190.728 442.866 192.87C442 195.012 440.85 196.755 439.414 198.1C438.001 199.467 436.383 200.469 434.561 201.107C432.738 201.745 430.881 202.064 428.989 202.064C426.802 202.064 424.626 201.688 422.461 200.937C420.319 200.185 418.337 199.193 416.514 197.963L418.735 192.665C420.353 193.827 421.982 194.773 423.623 195.502C425.264 196.231 426.938 196.596 428.647 196.596C429.536 196.596 430.516 196.436 431.587 196.117C432.658 195.798 433.66 195.24 434.595 194.442C435.529 193.668 436.304 192.619 436.919 191.298C437.557 189.976 437.876 188.324 437.876 186.342V179.335C436.987 180.451 436.042 181.443 435.039 182.309C434.059 183.152 433.057 183.858 432.031 184.428C431.029 184.997 430.015 185.43 428.989 185.727C427.987 186.023 427.018 186.171 426.084 186.171C424.512 186.171 422.996 185.897 421.538 185.351C420.08 184.804 418.781 183.938 417.642 182.753C416.525 181.545 415.625 179.984 414.941 178.07C414.281 176.156 413.95 173.843 413.95 171.132C413.95 168.511 414.292 165.959 414.976 163.476C415.659 160.992 416.719 158.793 418.154 156.879C419.59 154.942 421.424 153.393 423.657 152.23C425.913 151.046 428.602 150.453 431.724 150.453C432.749 150.453 433.797 150.533 434.868 150.692C435.962 150.829 437.044 151.023 438.115 151.273C439.186 151.524 440.234 151.809 441.26 152.128C442.285 152.424 443.265 152.72 444.199 153.017V185.146Z" fill="#D9D9D9"/>
</g>
<defs>
<filter id="filter0_d_72_2" x="0.799805" y="0.900002" width="465.463" height="122.55" filterUnits="userSpaceOnUse" color-interpolation-filters="sRGB">
<feFlood flood-opacity="0" result="BackgroundImageFix"/>
<feColorMatrix in="SourceAlpha" type="matrix" values="0 0 0 0 0 0 0 0 0 0 0 0 0 0 0 0 0 0 127 0" result="hardAlpha"/>
<feOffset dx="2" dy="6"/>
<feGaussianBlur stdDeviation="3"/>
<feComposite in2="hardAlpha" operator="out"/>
<feColorMatrix type="matrix" values="0 0 0 0 0 0 0 0 0 0 0 0 0 0 0 0 0 0 0.25 0"/>
<feBlend mode="normal" in2="BackgroundImageFix" result="effect1_dropShadow_72_2"/>
<feBlend mode="normal" in="SourceGraphic" in2="effect1_dropShadow_72_2" result="shape"/>
</filter>
<filter id="filter1_d_72_2" x="1.24707" y="131.312" width="448.952" height="80.752" filterUnits="userSpaceOnUse" color-interpolation-filters="sRGB">
<feFlood flood-opacity="0" result="BackgroundImageFix"/>
<feColorMatrix in="SourceAlpha" type="matrix" values="0 0 0 0 0 0 0 0 0 0 0 0 0 0 0 0 0 0 127 0" result="hardAlpha"/>
<feOffset dx="2" dy="6"/>
<feGaussianBlur stdDeviation="2"/>
<feComposite in2="hardAlpha" operator="out"/>
<feColorMatrix type="matrix" values="0 0 0 0 0 0 0 0 0 0 0 0 0 0 0 0 0 0 0.25 0"/>
<feBlend mode="normal" in2="BackgroundImageFix" result="effect1_dropShadow_72_2"/>
<feBlend mode="normal" in="SourceGraphic" in2="effect1_dropShadow_72_2" result="shape"/>
</filter>
</defs>
</svg>
